<?xml version="1.0" ?><!DOCTYPE svg  PUBLIC '-//W3C//DTD SVG 1.1//EN'  'http://www.w3.org/Graphics/SVG/1.1/DTD/svg11.dtd'><svg enable-background="new 0 0 512 512" height="512px" id="Layer_1" version="1.1" viewBox="0 0 512 512" width="512px" xml:space="preserve" xmlns="http://www.w3.org/2000/svg" xmlns:xlink="http://www.w3.org/1999/xlink"><path d="M377.416,204.666c-1.112-3.129-3.87-5.389-7.152-5.859l-100.394-14.43l46.056-102.799  c1.23-2.767,0.986-5.977-0.669-8.526c-1.646-2.541-4.476-4.078-7.504-4.078H167.55c-4.819,0-8.77,3.815-8.941,8.625l-6.456,182.688  c-0.163,4.565,3.146,8.517,7.667,9.167l69.798,10.045l-93.387,168.584c-2.188,3.969-1.076,8.933,2.595,11.591  c1.582,1.14,3.408,1.682,5.234,1.682c2.423,0,4.828-0.985,6.582-2.894L375.58,213.717  C377.822,211.275,378.527,207.794,377.416,204.666z" fill="#010101"/></svg>